# xmcd CD Database Entry
#
# Track frame offsets:
# 150
# 37074
# 74615
# 89418
# 147204
# 165016
# 217177
# 228117
#
# Disc length: 4079 seconds
#
# Revision: 1
# Processed by: cddbd v1.4PL0 Copyright (c) Steve Scherf et al.
# Submitted via: tcd 2.0b
#
DISCID=6c0fed08
DTITLE=Phish - 7-9-97
DYEAR=1900
DGENRE=
TTITLE0=PYITE
TTITLE1=Prince Caspian
TTITLE2=Ginseng Sullivan
TTITLE3=SOAM
TTITLE4=Dirt
TTITLE5=Taste
TTITLE6=Sweet Adeline
TTITLE7=Harry Hood
EXTD=
EXTT0=
EXTT1=
EXTT2=
EXTT3=
EXTT4=
EXTT5=
EXTT6=
EXTT7=
PLAYORDER=
